# xmcd
#
# Track frame offsets:
#	150
#	11719
#	22060
#	34393
#	46726
#	55294
#	62832
#	71625
#	84883
#	101488
#	114106
#	120896
#	133296
#	143215
#	153911
#	160029
#	173206
#	186239
#	197514
#	216267
#
# Disc length: 3073
#
# Revision: 1
# Processed by: cddbd v1.5.2PL0 Copyright (c) Steve Scherf et al.
# Submitted via: kJams Pro 1.0a1.17
#
DISCID=110bff14
DTITLE=Unknown Artist - 100 Hits – Christmas Disc 5
DYEAR=2000
DGENRE=Various
TTITLE0=Traditional - Ding Dong Merrily on High
TTITLE1=Traditional - Hark the herald angels sing
TTITLE2=Traditional - O Come All Ye Faithful
TTITLE3=Traditional - Once in Royal David's City
TTITLE4=Traditional - Away in a Manger
TTITLE5=Traditional - Carol of the Bells
TTITLE6=Traditional - Deck the Halls
TTITLE7=Traditional - God Rest Ye Merry Gentlemen
TTITLE8=Traditional - The Twelve Days of Christmas
TTITLE9=Traditional - The Holly and the Ivy
TTITLE10=Traditional - Silent Night
TTITLE11=Traditional - Joy to the World
TTITLE12=Traditional - It Came upon a midnight clear
TTITLE13=Traditional - Good King Wenceslas
TTITLE14=Traditional - I saw Three Ships
TTITLE15=Traditional - O Christmas Tree
TTITLE16=Traditional - Carol of the Drum
TTITLE17=Traditional - O Little Town of Bethlehem
TTITLE18=Traditional - The First Noel
TTITLE19=Traditional - Auld Lang Syne
EXTD=
EXTT0=
EXTT1=
EXTT2=
EXTT3=
EXTT4=
EXTT5=
EXTT6=
EXTT7=
EXTT8=
EXTT9=
EXTT10=
EXTT11=
EXTT12=
EXTT13=
EXTT14=
EXTT15=
EXTT16=
EXTT17=
EXTT18=
EXTT19=
PLAYORDER=
